<svg width="32" height="32" viewBox="0 0 32 32" fill="none" xmlns="http://www.w3.org/2000/svg">
<path fill-rule="evenodd" clip-rule="evenodd" d="M2.3424 29.6576C4.688 32 8.4576 32 16 32C23.5424 32 27.3136 32 29.656 29.656C32 27.3152 32 23.5424 32 16C32 8.4576 32 4.6864 29.656 2.3424C27.3152 0 23.5424 0 16 0C8.4576 0 4.6864 0 2.3424 2.3424C0 4.688 0 8.4576 0 16C0 23.5424 0 27.3152 2.3424 29.6576ZM26.8 22.4C26.8 22.7183 26.6736 23.0235 26.4485 23.2485C26.2235 23.4736 25.9183 23.6 25.6 23.6H6.4C6.08174 23.6 5.77652 23.4736 5.55147 23.2485C5.32643 23.0235 5.2 22.7183 5.2 22.4C5.2 22.0817 5.32643 21.7765 5.55147 21.5515C5.77652 21.3264 6.08174 21.2 6.4 21.2H25.6C25.9183 21.2 26.2235 21.3264 26.4485 21.5515C26.6736 21.7765 26.8 22.0817 26.8 22.4ZM25.6 17.2C25.9183 17.2 26.2235 17.0736 26.4485 16.8485C26.6736 16.6235 26.8 16.3183 26.8 16C26.8 15.6817 26.6736 15.3765 26.4485 15.1515C26.2235 14.9264 25.9183 14.8 25.6 14.8H6.4C6.08174 14.8 5.77652 14.9264 5.55147 15.1515C5.32643 15.3765 5.2 15.6817 5.2 16C5.2 16.3183 5.32643 16.6235 5.55147 16.8485C5.77652 17.0736 6.08174 17.2 6.4 17.2H25.6ZM26.8 9.6C26.8 9.91826 26.6736 10.2235 26.4485 10.4485C26.2235 10.6736 25.9183 10.8 25.6 10.8H6.4C6.08174 10.8 5.77652 10.6736 5.55147 10.4485C5.32643 10.2235 5.2 9.91826 5.2 9.6C5.2 9.28174 5.32643 8.97652 5.55147 8.75147C5.77652 8.52643 6.08174 8.4 6.4 8.4H25.6C25.9183 8.4 26.2235 8.52643 26.4485 8.75147C26.6736 8.97652 26.8 9.28174 26.8 9.6Z" fill="black"/>
</svg>
