<svg width="24" height="24" viewBox="0 0 24 24" fill="none" xmlns="http://www.w3.org/2000/svg">
<path d="M12 3.75C8.524 3.75 5.75 6.467 5.75 9.766C5.75 11.445 6.326 12.93 7.373 14.001C7.493 14.124 7.498 14.321 7.377 14.442L6.742 15.077C6.71524 15.1044 6.68331 15.1262 6.64806 15.1412C6.61281 15.1562 6.57493 15.1641 6.53663 15.1644C6.49832 15.1647 6.46033 15.1574 6.42487 15.1429C6.3894 15.1284 6.35716 15.107 6.33 15.08C4.966 13.704 4.25 11.814 4.25 9.766C4.25 5.59 7.744 2.25 12 2.25C13.992 2.25 15.817 2.982 17.195 4.189C17.2249 4.21545 17.249 4.24778 17.2658 4.28397C17.2826 4.32016 17.2918 4.35943 17.2927 4.39932C17.2936 4.43921 17.2863 4.47887 17.2712 4.51581C17.2562 4.55275 17.2336 4.58617 17.205 4.614L16.568 5.252C16.512 5.30708 16.4372 5.33885 16.3587 5.34089C16.2802 5.34294 16.2038 5.3151 16.145 5.263C14.9882 4.28018 13.518 3.74352 12 3.75Z" fill="black"/>
<path fill-rule="evenodd" clip-rule="evenodd" d="M19.997 3.94402L4.02997 19.91L4.00297 19.936L3.96997 19.97C3.89628 20.0387 3.83718 20.1215 3.79619 20.2135C3.7552 20.3055 3.73316 20.4048 3.73138 20.5055C3.7296 20.6062 3.74813 20.7062 3.78585 20.7996C3.82357 20.893 3.87971 20.9778 3.95093 21.0491C4.02215 21.1203 4.10698 21.1764 4.20037 21.2141C4.29376 21.2519 4.39379 21.2704 4.49449 21.2686C4.5952 21.2668 4.69451 21.2448 4.78651 21.2038C4.87851 21.1628 4.96131 21.1037 5.02997 21.03L7.76697 18.294C7.90597 19.05 8.01097 19.744 8.03697 20.175C8.10697 21.333 8.95897 22.28 10.089 22.525L10.285 22.567C11.415 22.811 12.585 22.811 13.715 22.567L13.911 22.525C15.041 22.281 15.893 21.333 15.963 20.175C15.994 19.651 16.143 18.741 16.326 17.803C16.457 17.128 16.602 16.463 16.72 15.96C16.742 15.8874 16.7892 15.8251 16.853 15.784C18.746 14.393 19.75 12.19 19.75 9.76602C19.7512 8.77972 19.5525 7.80341 19.166 6.89602L21.03 5.03002C21.165 4.89102 21.241 4.70515 21.242 4.51138C21.243 4.3176 21.169 4.13095 21.0354 3.99054C20.9019 3.85014 20.7191 3.76687 20.5256 3.7582C20.332 3.74953 20.1425 3.81612 19.997 3.94402ZM18.25 9.76602C18.25 9.17602 18.161 8.60602 17.996 8.06502L9.14997 16.91H14.975C15.073 16.434 15.172 15.985 15.259 15.616C15.365 15.167 15.641 14.813 15.964 14.576C17.428 13.499 18.25 11.77 18.25 9.76602ZM9.31097 18.41C9.42097 19.047 9.50797 19.65 9.53497 20.084C9.56197 20.541 9.90297 20.95 10.406 21.058L10.602 21.101C11.522 21.3 12.477 21.3 13.398 21.101L13.594 21.058C14.097 20.95 14.438 20.541 14.466 20.084C14.492 19.651 14.578 19.047 14.689 18.41H9.31097Z" fill="black"/>
</svg>
