<svg width="33" height="33" viewBox="0 0 33 33" fill="none" xmlns="http://www.w3.org/2000/svg">
<g opacity="0.4">
<path d="M2.06177 12.6504V22.5254L3.93677 22.5192V12.6504H2.06177Z" fill="#3E4347"/>
<path fill-rule="evenodd" clip-rule="evenodd" d="M5.49989 1.08167H3.49989L9.49989 12.0817C10.1624 13.2629 20.4124 12.9629 20.4999 12.0817L5.49989 1.08167ZM29.0624 12.6379L29.0561 22.5129H30.9374L30.9436 12.6379H29.0624ZM5.06239 13.6754V14.8067C12.9186 15.5879 20.0936 15.5879 27.9374 14.8129V13.6879C20.0749 14.4692 12.9311 14.4692 5.06239 13.6754ZM27.9374 19.6442C20.0436 20.4629 12.8999 20.4754 5.06239 19.7192V20.8567C12.8811 21.6067 20.0686 21.5754 27.9374 20.7754V19.6442ZM2.06239 23.6442V30.5192L30.9374 30.5254L30.9436 23.6442H2.06239Z" fill="#3E4347"/>
<path d="M5.06239 16.6817V17.8129C12.9061 18.5942 20.0874 18.5879 27.9374 17.8129V16.6817C20.0749 17.4692 12.9311 17.4692 5.06239 16.6817Z" fill="#3E4347"/>
</g>
<rect x="2.5" y="24.0817" width="28" height="6" fill="#002147"/>
<rect x="3.5" y="13.0817" width="9" height="1" transform="rotate(90 3.5 13.0817)" fill="#002147"/>
<rect x="29.5" y="22.0817" width="9" height="1" transform="rotate(-90 29.5 22.0817)" fill="#002147"/>
</svg>
