<svg width="33" height="33" viewBox="0 0 33 33" fill="none" xmlns="http://www.w3.org/2000/svg">
<path d="M9.75342 2.74829C10.3081 2.74829 10.7574 3.18029 10.7574 3.71362V5.66029C11.6481 5.64429 12.6467 5.64429 13.7707 5.64429H19.1241C20.2467 5.64429 21.2454 5.64429 22.1361 5.66162V3.71496C22.1361 3.18162 22.5854 2.74829 23.1401 2.74829C23.6947 2.74829 24.1441 3.18029 24.1441 3.71362V5.74829C26.0707 5.89629 27.3361 6.26029 28.2641 7.15496C29.1947 8.04829 29.5734 9.26429 29.7267 11.1176L29.8334 12.0816H3.16675V11.1163C3.32141 9.26296 3.70008 8.04696 4.62941 7.15362C5.55875 6.26029 6.82275 5.89496 8.74941 5.74696V3.71362C8.74941 3.18029 9.19875 2.74829 9.75342 2.74829Z" fill="#002147"/>
<path opacity="0.4" d="M29.8333 18.7483V16.0817C29.8333 14.963 29.828 12.9683 29.8107 12.0817H3.17999C3.16266 12.9683 3.16666 14.963 3.16666 16.0817V18.7483C3.16666 23.7763 3.16666 26.291 4.72933 27.8523C6.29199 29.4137 8.80399 29.415 13.8333 29.415H19.1667C24.1933 29.415 26.708 29.415 28.2707 27.8523C29.8333 26.2897 29.8333 23.7777 29.8333 18.7483Z" fill="#3E4347"/>
<path d="M24.5 22.7483C24.5 23.102 24.3595 23.4411 24.1095 23.6911C23.8594 23.9412 23.5203 24.0817 23.1667 24.0817C22.813 24.0817 22.4739 23.9412 22.2239 23.6911C21.9738 23.4411 21.8333 23.102 21.8333 22.7483C21.8333 22.3947 21.9738 22.0556 22.2239 21.8055C22.4739 21.5555 22.813 21.415 23.1667 21.415C23.5203 21.415 23.8594 21.5555 24.1095 21.8055C24.3595 22.0556 24.5 22.3947 24.5 22.7483ZM24.5 17.415C24.5 17.7686 24.3595 18.1078 24.1095 18.3578C23.8594 18.6079 23.5203 18.7483 23.1667 18.7483C22.813 18.7483 22.4739 18.6079 22.2239 18.3578C21.9738 18.1078 21.8333 17.7686 21.8333 17.415C21.8333 17.0614 21.9738 16.7222 22.2239 16.4722C22.4739 16.2221 22.813 16.0817 23.1667 16.0817C23.5203 16.0817 23.8594 16.2221 24.1095 16.4722C24.3595 16.7222 24.5 17.0614 24.5 17.415ZM17.8333 22.7483C17.8333 23.102 17.6929 23.4411 17.4428 23.6911C17.1928 23.9412 16.8536 24.0817 16.5 24.0817C16.1464 24.0817 15.8072 23.9412 15.5572 23.6911C15.3071 23.4411 15.1667 23.102 15.1667 22.7483C15.1667 22.3947 15.3071 22.0556 15.5572 21.8055C15.8072 21.5555 16.1464 21.415 16.5 21.415C16.8536 21.415 17.1928 21.5555 17.4428 21.8055C17.6929 22.0556 17.8333 22.3947 17.8333 22.7483ZM17.8333 17.415C17.8333 17.7686 17.6929 18.1078 17.4428 18.3578C17.1928 18.6079 16.8536 18.7483 16.5 18.7483C16.1464 18.7483 15.8072 18.6079 15.5572 18.3578C15.3071 18.1078 15.1667 17.7686 15.1667 17.415C15.1667 17.0614 15.3071 16.7222 15.5572 16.4722C15.8072 16.2221 16.1464 16.0817 16.5 16.0817C16.8536 16.0817 17.1928 16.2221 17.4428 16.4722C17.6929 16.7222 17.8333 17.0614 17.8333 17.415ZM11.1667 22.7483C11.1667 23.102 11.0262 23.4411 10.7761 23.6911C10.5261 23.9412 10.187 24.0817 9.83333 24.0817C9.47971 24.0817 9.14057 23.9412 8.89052 23.6911C8.64048 23.4411 8.5 23.102 8.5 22.7483C8.5 22.3947 8.64048 22.0556 8.89052 21.8055C9.14057 21.5555 9.47971 21.415 9.83333 21.415C10.187 21.415 10.5261 21.5555 10.7761 21.8055C11.0262 22.0556 11.1667 22.3947 11.1667 22.7483ZM11.1667 17.415C11.1667 17.7686 11.0262 18.1078 10.7761 18.3578C10.5261 18.6079 10.187 18.7483 9.83333 18.7483C9.47971 18.7483 9.14057 18.6079 8.89052 18.3578C8.64048 18.1078 8.5 17.7686 8.5 17.415C8.5 17.0614 8.64048 16.7222 8.89052 16.4722C9.14057 16.2221 9.47971 16.0817 9.83333 16.0817C10.187 16.0817 10.5261 16.2221 10.7761 16.4722C11.0262 16.7222 11.1667 17.0614 11.1667 17.415Z" fill="#002147"/>
</svg>
