<svg width="28" height="28" viewBox="0 0 28 28" fill="none" xmlns="http://www.w3.org/2000/svg">
<path d="M7.76438 3.11406C7.72967 3.11425 7.69495 3.11521 7.6602 3.11696C7.50144 3.12489 7.34274 3.14868 7.18442 3.18948C5.63512 3.58837 4.09868 4.78898 2.97031 6.35282C1.842 7.91667 1.12898 9.83056 1.13533 11.573C1.13861 12.4772 1.51486 13.0955 2.16815 13.5925C2.56683 13.8956 3.07542 14.1377 3.64647 14.316C3.59052 13.5329 3.62011 12.6876 3.86287 11.9803L4.78402 12.2965C3.91526 15.4609 5.80739 17.882 8.59301 20.0625C8.46695 18.4839 8.72179 16.7821 9.4516 15.0671C9.38242 14.6427 9.38926 14.1707 9.48277 13.6636C9.73707 12.2849 10.5771 10.5948 12.2106 8.55503L13.0085 9.19378C11.4417 11.1503 10.6951 12.7252 10.4879 13.8489C10.2807 14.9726 10.5613 15.5906 11.0374 15.9366C11.5135 16.2827 12.3084 16.3767 13.2422 16.0748C14.1758 15.7728 15.218 15.083 16.1089 13.9745C18.3048 11.2425 19.2151 8.99652 19.2842 7.38554C19.3534 5.77445 18.6764 4.79259 17.4931 4.2718C15.1267 3.23022 10.4568 4.41984 6.54611 8.91067L5.77529 8.23954C7.24146 6.55593 8.81766 5.2804 10.3769 4.39556C9.5467 3.59832 8.65612 3.10832 7.76438 3.11406ZM20.3841 7.81117C20.3485 7.8109 20.3128 7.81145 20.2771 7.81172C20.0828 9.68657 19.0379 11.9618 16.9056 14.6147C15.9017 15.864 14.7092 16.6745 13.5567 17.0472C12.4042 17.4199 11.2613 17.3627 10.4366 16.7634C10.2873 16.6545 10.1517 16.5281 10.0327 16.3867C8.89772 19.8761 9.91672 23.102 11.9416 25.0594C13.3423 26.4135 15.2231 27.1569 17.2721 26.9586C19.3211 26.7602 21.565 25.6173 23.6674 23.0759C28.2864 17.4922 27.5619 12.1597 24.7515 9.53274C23.5987 8.45528 22.088 7.82091 20.384 7.81106L20.3841 7.81117Z" fill="#C3AA72"/>
</svg>
