<svg width="32" height="33" viewBox="0 0 32 33" fill="none" xmlns="http://www.w3.org/2000/svg">
<path fill-rule="evenodd" clip-rule="evenodd" d="M18.6854 23.4666L18.6774 26.1373C18.676 26.764 18.6747 27.0773 18.4787 27.272C18.2827 27.4666 17.9694 27.4666 17.34 27.4666H13.3267C8.28669 27.4666 5.76669 27.4666 4.20002 25.904C3.12002 24.8293 2.78536 23.3026 2.68002 20.8146C2.66002 20.3213 2.64936 20.0733 2.74136 19.9093C2.83469 19.7453 3.20136 19.54 3.93736 19.128C4.35194 18.8968 4.69727 18.5592 4.93768 18.1499C5.17809 17.7407 5.30484 17.2746 5.30484 16.8C5.30484 16.3253 5.17809 15.8593 4.93768 15.45C4.69727 15.0407 4.35194 14.7031 3.93736 14.472C3.20136 14.0613 2.83336 13.8546 2.74136 13.6906C2.64936 13.5266 2.66002 13.28 2.68136 12.7853C2.78536 10.2973 3.12136 8.77197 4.20002 7.69597C5.76536 6.1333 8.28536 6.1333 13.3267 6.1333H18.0067C18.0942 6.13313 18.181 6.1502 18.2619 6.18354C18.3429 6.21688 18.4165 6.26584 18.4785 6.32762C18.5405 6.3894 18.5898 6.4628 18.6234 6.54361C18.6571 6.62443 18.6745 6.71109 18.6747 6.79864L18.6854 10.1333C18.6854 10.8693 19.284 11.4666 20.0214 11.4666V14.1333C19.284 14.1333 18.6854 14.7306 18.6854 15.4666V18.1333C18.6854 18.8693 19.284 19.4666 20.0214 19.4666V22.1333C19.284 22.1333 18.6854 22.7306 18.6854 23.4666Z" fill="#002147"/>
<path opacity="0.4" d="M20.0227 22.1333C20.76 22.1333 21.3587 22.7306 21.3587 23.4666V26.1013C21.3587 26.744 21.3587 27.0653 21.5654 27.2613C21.7707 27.4586 22.0854 27.4453 22.716 27.4186C25.2 27.3133 26.7254 26.9773 27.8014 25.904C28.88 24.8293 29.2147 23.3013 29.32 20.8133C29.34 20.32 29.3507 20.0733 29.2587 19.9093C29.1667 19.744 28.7987 19.5386 28.0627 19.128C27.6481 18.8968 27.3028 18.5592 27.0624 18.1499C26.822 17.7407 26.6952 17.2746 26.6952 16.8C26.6952 16.3253 26.822 15.8593 27.0624 15.45C27.3028 15.0407 27.6481 14.7031 28.0627 14.472C28.7987 14.06 29.1667 13.8546 29.2587 13.6906C29.352 13.5253 29.34 13.2786 29.32 12.7853C29.2147 10.2973 28.88 8.77064 27.8 7.69464C26.6307 6.52797 24.928 6.23331 22.0374 6.15864C21.949 6.15651 21.8611 6.17207 21.7789 6.20442C21.6966 6.23676 21.6217 6.28523 21.5584 6.34698C21.4952 6.40873 21.4449 6.48251 21.4106 6.56396C21.3763 6.64542 21.3587 6.73292 21.3587 6.82131V10.1333C21.3587 10.8693 20.76 11.4666 20.0227 11.4666V14.1333C20.198 14.133 20.3717 14.1672 20.5338 14.234C20.6958 14.3009 20.8431 14.399 20.9672 14.5229C21.0913 14.6467 21.1898 14.7938 21.257 14.9558C21.3241 15.1177 21.3587 15.2913 21.3587 15.4666V18.1333C21.3587 18.8693 20.76 19.4666 20.0227 19.4666V22.1333Z" fill="#3E4347"/>
</svg>
