<svg width="32" height="33" viewBox="0 0 32 33" fill="none" xmlns="http://www.w3.org/2000/svg">
<path d="M8.96004 22.7866C9.29952 22.6876 9.66442 22.7275 9.97448 22.8976C10.2845 23.0676 10.5144 23.3538 10.6134 23.6933C10.7124 24.0328 10.6725 24.3977 10.5025 24.7078C10.3324 25.0178 10.0462 25.2476 9.70671 25.3466C9.04004 25.5413 8.56004 25.7466 8.25204 25.9333C8.56937 26.124 9.07071 26.3373 9.76671 26.536C11.3067 26.976 13.5107 27.2666 16 27.2666C18.4894 27.2666 20.6934 26.976 22.2334 26.536C22.9307 26.3373 23.4307 26.124 23.748 25.9333C23.4414 25.7466 22.9614 25.5413 22.2947 25.3466C21.9606 25.2433 21.6804 25.0127 21.5147 24.7048C21.3489 24.3968 21.3108 24.036 21.4086 23.7002C21.5064 23.3643 21.7322 23.0804 22.0374 22.9095C22.3425 22.7386 22.7026 22.6945 23.04 22.7866C23.9307 23.0466 24.7467 23.38 25.3734 23.808C25.9534 24.2066 26.6667 24.9013 26.6667 25.9333C26.6667 26.9773 25.936 27.6773 25.3467 28.076C24.7094 28.5053 23.876 28.84 22.9654 29.1C21.128 29.6266 18.6667 29.9333 16 29.9333C13.3334 29.9333 10.872 29.6266 9.03471 29.1C8.12404 28.84 7.29071 28.5053 6.65337 28.076C6.06404 27.676 5.33337 26.9773 5.33337 25.9333C5.33337 24.9013 6.04671 24.2066 6.62671 23.808C7.25337 23.38 8.06937 23.0466 8.96004 22.7866ZM16 10.6C13.9467 10.6 12.664 12.8226 13.6907 14.6C14.1667 15.4253 15.0467 15.9333 16 15.9333C18.0534 15.9333 19.336 13.7106 18.3094 11.9333C18.0753 11.5279 17.7387 11.1913 17.3333 10.9573C16.928 10.7232 16.4681 10.6 16 10.6Z" fill="#002147"/>
<path opacity="0.4" d="M16 3.26666C18.6522 3.26666 21.1957 4.32023 23.0711 6.19559C24.9464 8.07096 26 10.6145 26 13.2667C26 16.6907 24.1333 19.4747 22.2 21.4533C21.4315 22.2319 20.6056 22.9517 19.7293 23.6067C18.9373 24.2013 17.1267 25.316 17.1267 25.316C16.7833 25.5112 16.395 25.6138 16 25.6138C15.605 25.6138 15.2167 25.5112 14.8733 25.316C13.9747 24.7949 13.1058 24.2243 12.2707 23.6067C11.3944 22.9517 10.5685 22.2319 9.8 21.4533C7.86667 19.4747 6 16.6907 6 13.2667C6 10.6145 7.05357 8.07096 8.92893 6.19559C10.8043 4.32023 13.3478 3.26666 16 3.26666Z" fill="#3E4347"/>
</svg>
