<svg width="22" height="23" viewBox="0 0 22 23" fill="none" xmlns="http://www.w3.org/2000/svg">
<g clip-path="url(#clip0_447_1277)">
<path d="M0.469497 11.3028C0.468981 13.1657 0.955731 14.9847 1.88128 16.5879L0.380981 22.0657L5.98686 20.5959C7.53737 21.4399 9.2746 21.8822 11.04 21.8823H11.0446C16.8725 21.8823 21.6165 17.1401 21.619 11.3112C21.6201 8.48666 20.5211 5.83068 18.5245 3.83246C16.5281 1.83441 13.8731 0.733467 11.0442 0.732178C5.21565 0.732178 0.471989 5.47421 0.469583 11.3028" fill="url(#paint0_linear_447_1277)"/>
<path d="M8.30831 6.72171C8.10326 6.26599 7.88747 6.25679 7.69248 6.2488C7.53281 6.24192 7.35027 6.24244 7.16791 6.24244C6.98538 6.24244 6.68881 6.3111 6.43813 6.58482C6.1872 6.85878 5.4801 7.52085 5.4801 8.8674C5.4801 10.214 6.46091 11.5154 6.59763 11.6982C6.73453 11.8806 8.49109 14.7324 11.2731 15.8295C13.5851 16.7412 14.0556 16.5598 14.5574 16.5141C15.0593 16.4686 16.1768 15.8522 16.4048 15.2131C16.633 14.5741 16.633 14.0263 16.5646 13.9118C16.4962 13.7978 16.3136 13.7293 16.0399 13.5925C15.7662 13.4557 14.4205 12.7935 14.1697 12.7021C13.9187 12.6108 13.7363 12.5653 13.5538 12.8393C13.3712 13.113 12.8471 13.7293 12.6873 13.9118C12.5278 14.0948 12.368 14.1176 12.0944 13.9807C11.8205 13.8434 10.939 13.5547 9.89325 12.6224C9.0796 11.8969 8.53028 11.001 8.37061 10.7269C8.21094 10.4533 8.35351 10.305 8.49075 10.1686C8.61373 10.0459 8.76455 9.84898 8.90153 9.68922C9.038 9.52938 9.08355 9.41534 9.17481 9.23281C9.26617 9.0501 9.22045 8.89026 9.15213 8.75336C9.08355 8.61646 8.55168 7.26286 8.30831 6.72171Z" fill="white"/>
</g>
<defs>
<linearGradient id="paint0_linear_447_1277" x1="1062.28" y1="2134.09" x2="1062.28" y2="0.732178" gradientUnits="userSpaceOnUse">
<stop stop-color="#1FAF38"/>
<stop offset="1" stop-color="#60D669"/>
</linearGradient>
<clipPath id="clip0_447_1277">
<rect width="22" height="22.1719" fill="white" transform="translate(0 0.349609)"/>
</clipPath>
</defs>
</svg>
