<svg width="143" height="65" viewBox="0 0 143 65" fill="none" xmlns="http://www.w3.org/2000/svg">
<path d="M27.0566 33V28.3418H32.8223V23.3672H27.0566V19.3066H32.8223V14.332H27.0566V9.67383H36.0742L40.75 14.332V19.0781L38.4121 21.416L40.75 23.7539V28.3418L36.0742 33H27.0566ZM18.0566 33V9.67383H25.8262V33H18.0566ZM56.1309 33V28.2539H59.1016V14.4023H56.1309V9.67383H62.1602L66.8711 14.332V28.3418L62.1602 33H56.1309ZM48.9238 33L44.1953 28.3418V14.332L48.9238 9.67383H54.9004V14.4023H51.9824V28.2539H54.9004V33H48.9238ZM83.6406 33L68.084 9.67383H76.4688L92.1133 33H83.6406ZM84.8711 20.2207L80.7227 14.1562L83.4473 9.67383H91.7793L84.8711 20.2207ZM67.6094 33L75.0449 22.1367L79.2109 28.4648L76.4863 33H67.6094ZM94.2402 33V9.67383H102.01V18.9199H109.445V23.4199H102.01V33H94.2402ZM108.074 16.4238V14.1914H103.24V9.67383H115.387V16.4238H108.074ZM103.24 33V28.3418H107.617V26.0039H115.387V33H103.24ZM130.311 33V28.2539H133.281V14.4023H130.311V9.67383H136.34L141.051 14.332V28.3418L136.34 33H130.311ZM123.104 33L118.375 28.3418V14.332L123.104 9.67383H129.08V14.4023H126.162V28.2539H129.08V33H123.104Z" fill="#0E0E12"/>
<path d="M19.172 58V39.8H25.698C27.2233 39.8 28.532 40.0427 29.624 40.528C30.716 41.0133 31.5567 41.7153 32.146 42.634C32.7353 43.5353 33.03 44.636 33.03 45.936C33.03 47.2013 32.7353 48.2933 32.146 49.212C31.5567 50.1307 30.716 50.8327 29.624 51.318C28.532 51.8033 27.2233 52.046 25.698 52.046H19.9L20.498 51.422V58H19.172ZM20.498 51.5L19.9 50.85H25.698C27.6567 50.85 29.1387 50.4253 30.144 49.576C31.1667 48.7093 31.678 47.496 31.678 45.936C31.678 44.3587 31.1667 43.1453 30.144 42.296C29.1387 41.4293 27.6567 40.996 25.698 40.996H19.9L20.498 40.346V51.5ZM37.764 58V39.8H44.29C45.8154 39.8 47.124 40.0427 48.216 40.528C49.308 41.0133 50.1487 41.7153 50.738 42.634C51.3274 43.5353 51.622 44.636 51.622 45.936C51.622 47.2013 51.3274 48.2933 50.738 49.212C50.1487 50.1133 49.308 50.8153 48.216 51.318C47.124 51.8033 45.8154 52.046 44.29 52.046H38.492L39.09 51.422V58H37.764ZM50.4 58L45.668 51.396H47.176L51.908 58H50.4ZM39.09 51.5L38.492 50.876H44.29C46.2487 50.876 47.7307 50.4427 48.736 49.576C49.7587 48.7093 50.27 47.496 50.27 45.936C50.27 44.3587 49.7587 43.1453 48.736 42.296C47.7307 41.4293 46.2487 40.996 44.29 40.996H38.492L39.09 40.346V51.5ZM64.4589 58.13C63.1069 58.13 61.8503 57.9047 60.6889 57.454C59.5449 56.986 58.5396 56.336 57.6729 55.504C56.8236 54.6547 56.1649 53.6753 55.6969 52.566C55.2289 51.4393 54.9949 50.2173 54.9949 48.9C54.9949 47.5827 55.2289 46.3693 55.6969 45.26C56.1649 44.1333 56.8236 43.154 57.6729 42.322C58.5396 41.4727 59.5449 40.8227 60.6889 40.372C61.8503 39.904 63.1069 39.67 64.4589 39.67C65.8109 39.67 67.0589 39.904 68.2029 40.372C69.3643 40.8227 70.3696 41.464 71.2189 42.296C72.0683 43.128 72.7269 44.1073 73.1949 45.234C73.6803 46.3433 73.9229 47.5653 73.9229 48.9C73.9229 50.2347 73.6803 51.4653 73.1949 52.592C72.7269 53.7013 72.0683 54.672 71.2189 55.504C70.3696 56.336 69.3643 56.986 68.2029 57.454C67.0589 57.9047 65.8109 58.13 64.4589 58.13ZM64.4589 56.908C65.6203 56.908 66.6949 56.7087 67.6829 56.31C68.6709 55.9113 69.5289 55.348 70.2569 54.62C70.9849 53.892 71.5483 53.0427 71.9469 52.072C72.3629 51.1013 72.5709 50.044 72.5709 48.9C72.5709 47.7387 72.3629 46.6813 71.9469 45.728C71.5483 44.7573 70.9849 43.908 70.2569 43.18C69.5289 42.452 68.6709 41.8887 67.6829 41.49C66.6949 41.0913 65.6203 40.892 64.4589 40.892C63.2976 40.892 62.2229 41.0913 61.2349 41.49C60.2469 41.8887 59.3803 42.452 58.6349 43.18C57.9069 43.908 57.3349 44.7573 56.9189 45.728C56.5203 46.6813 56.3209 47.7387 56.3209 48.9C56.3209 50.044 56.5203 51.1013 56.9189 52.072C57.3349 53.0427 57.9069 53.892 58.6349 54.62C59.3803 55.348 60.2469 55.9113 61.2349 56.31C62.2229 56.7087 63.2976 56.908 64.4589 56.908ZM80.0392 58.13C79.0512 58.13 78.1239 57.9047 77.2572 57.454C76.4079 56.986 75.7232 56.3447 75.2032 55.53L76.0092 54.646C76.5119 55.3913 77.1012 55.9633 77.7772 56.362C78.4706 56.7433 79.2246 56.934 80.0392 56.934C82.4486 56.934 83.6532 55.504 83.6532 52.644V40.996H76.9452V39.8H84.9792V52.644C84.9792 54.464 84.5632 55.8333 83.7312 56.752C82.8992 57.6707 81.6686 58.13 80.0392 58.13ZM92.6027 48.172H102.457V49.342H92.6027V48.172ZM92.7587 56.804H103.991V58H91.4327V39.8H103.601V40.996H92.7587V56.804ZM116.705 58.13C115.353 58.13 114.096 57.9047 112.935 57.454C111.791 56.986 110.794 56.336 109.945 55.504C109.096 54.672 108.437 53.7013 107.969 52.592C107.501 51.4653 107.267 50.2347 107.267 48.9C107.267 47.5653 107.501 46.3433 107.969 45.234C108.437 44.1073 109.096 43.128 109.945 42.296C110.812 41.464 111.817 40.8227 112.961 40.372C114.105 39.904 115.353 39.67 116.705 39.67C117.988 39.67 119.184 39.878 120.293 40.294C121.42 40.71 122.382 41.3427 123.179 42.192L122.347 43.05C121.567 42.2873 120.7 41.7413 119.747 41.412C118.811 41.0653 117.814 40.892 116.757 40.892C115.596 40.892 114.512 41.0913 113.507 41.49C112.519 41.8887 111.652 42.452 110.907 43.18C110.179 43.908 109.607 44.7573 109.191 45.728C108.792 46.6987 108.593 47.756 108.593 48.9C108.593 50.044 108.792 51.1013 109.191 52.072C109.607 53.0427 110.179 53.892 110.907 54.62C111.652 55.348 112.519 55.9113 113.507 56.31C114.512 56.7087 115.596 56.908 116.757 56.908C117.814 56.908 118.811 56.7433 119.747 56.414C120.7 56.0673 121.567 55.504 122.347 54.724L123.179 55.582C122.382 56.4313 121.42 57.0727 120.293 57.506C119.184 57.922 117.988 58.13 116.705 58.13ZM131.136 58V40.996H124.584V39.8H139.014V40.996H132.462V58H131.136Z" fill="#0E0E12"/>
<rect y="9" width="12" height="49" rx="2" fill="#C3AA72"/>
</svg>
